<svg version="1" xmlns="http://www.w3.org/2000/svg" width="341.333" height="341.333" viewBox="0 0 256.000000 256.000000"><path d="M160.8 4.1C151.5 9 141.5 18 135 27.2l-4.8 6.9-3.3-5.7c-7.1-12.5-21.6-22.7-36.5-25.9-6.7-1.4-25.9-2-29.9-.9-1.9.5-2.1 1.2-1.7 7.2.8 15.2 7.1 33 14.7 41.9l3.4 4-5.2 1.2c-2.9.6-9 3-13.7 5.3-6.8 3.4-10.3 6-17.1 12.8-7.5 7.5-9.4 10-13.7 19.1-5.7 11.7-7.6 18.2-9.3 31.9-3.6 29.9 7.7 72.7 26.3 99.7 6.1 8.9 18.5 20.8 25.8 25 13.1 7.4 27.7 8.3 42.2 2.4 10.6-4.3 19-4.3 29.6 0 11.1 4.5 22.9 5.1 32.8 1.7 9.4-3.3 16.8-8.3 24.9-17 15.3-16.2 27.5-41.6 33.7-70.1 1.8-8.6 2.2-13.4 2.2-29.7 0-22.8-1.3-29.2-9.1-45-3.9-8-6-10.9-13.7-18.5-10.3-10.3-18.5-15-32.2-18.5-9.4-2.5-25.9-3-34.7-1.1-3.2.7-6.1 1-6.4.8-.3-.3 1.4-4.3 3.8-8.9 5.8-11.2 16.5-22.1 26.9-27.3 8.7-4.4 9.9-5.7 10-10.7 0-2.8-.6-4.1-2.6-5.7-3.9-3-7.9-2.5-16.6 2z"/></svg>