<?xml version="1.0" encoding="utf-8"?>
<!-- Generator: Adobe Illustrator 21.0.2, SVG Export Plug-In . SVG Version: 6.00 Build 0)  -->
<svg version="1.1" id="Layer_1" xmlns="http://www.w3.org/2000/svg" xmlns:xlink="http://www.w3.org/1999/xlink" x="0px" y="0px"
	 viewBox="0 0 100 100" style="enable-background:new 0 0 100 100;" xml:space="preserve">
<path d="M77.3,38.6l-25-32.4C51.8,5.4,50.9,5,50,5c-0.9,0-1.8,0.4-2.3,1.1l-25,32.4c-8.1,10.5-9.6,24.5-4,36.5
	C24.3,87,35.4,94.4,48.4,95c0.5,0,1.1,0,1.6,0s1.1,0,1.6,0c13-0.5,24.1-8,29.7-19.9C86.9,63,85.4,49,77.3,38.6z M76,72.6
	c-4.6,9.9-13.8,16.1-24.6,16.5c-0.9,0-1.9,0-2.8,0c-10.8-0.4-20-6.6-24.6-16.5c-4.7-10.1-3.4-21.7,3.3-30.4L50,12.7l22.7,29.4
	C79.4,50.9,80.7,62.6,76,72.6z M52,80.2c0,1.1-0.9,2-2,2c-10.9,0-19.8-8.9-19.8-19.8c0-1.1,0.9-2,2-2c1.1,0,2,0.9,2,2
	c0,8.7,7.1,15.9,15.9,15.9C51.1,78.2,52,79.1,52,80.2z"/>
</svg>
